HIERARCHY
ROOT Hips
{
	OFFSET 0.00000 0.00000 0.00000
	CHANNELS 6 Xposition Yposition Zposition Zrotation Yrotation Xrotation 
	JOINT LHipJoint
	{
		OFFSET 0 0 0
		CHANNELS 3 Zrotation Yrotation Xrotation
		JOINT LeftHip
		{
			OFFSET 1.81638 -1.86202 0.89635
			CHANNELS 3 Zrotation Yrotation Xrotation
			JOINT LeftKnee
			{
				OFFSET 2.63464 -7.23861 0.00000
				CHANNELS 3 Zrotation Yrotation Xrotation
				JOINT LeftAnkle
				{
					OFFSET 2.45871 -6.75336 0.00000
					CHANNELS 3 Zrotation Yrotation Xrotation
					JOINT LeftToe
					{
						OFFSET 0.34235 -0.94059 2.20020
						CHANNELS 3 Zrotation Yrotation Xrotation
						End Site
						{
							OFFSET 0.00000 -0.00000 1.18611
						}
					}
				}
			}
		}
	}
	JOINT RHipJoint
	{
		OFFSET 0 0 0
		CHANNELS 3 Zrotation Yrotation Xrotation
		JOINT RightHip
		{
			OFFSET -1.84405 -1.86203 0.89635
			CHANNELS 3 Zrotation Yrotation Xrotation
			JOINT RightKnee
			{
				OFFSET -2.71067 -7.44751 0.00000
				CHANNELS 3 Zrotation Yrotation Xrotation
				JOINT RightAnkle
				{
					OFFSET -2.47159 -6.79060 0.00000
					CHANNELS 3 Zrotation Yrotation Xrotation
					JOINT RightToe
					{
						OFFSET -0.26223 -0.72048 2.36007
						CHANNELS 3 Zrotation Yrotation Xrotation
						End Site
						{
							OFFSET -0.00000 -0.00000 1.23343
						}
					}
				}
			}
		}
	}
	JOINT lowerback
	{
		OFFSET 0 0 0
		CHANNELS 3 Zrotation Yrotation Xrotation
		JOINT Chest
		{
			OFFSET 0.02089 1.99248 -0.22512
			CHANNELS 3 Zrotation Yrotation Xrotation
			JOINT Chest2
			{
				OFFSET 0.01476 2.01356 -0.03079
				CHANNELS 3 Zrotation Yrotation Xrotation
				JOINT lowerneck
				{
					OFFSET 0 0 0
					CHANNELS 3 Zrotation Yrotation Xrotation
					JOINT Neck
					{
						OFFSET 0.04846 1.65098 0.06663
						CHANNELS 3 Zrotation Yrotation Xrotation
						JOINT Head
						{
							OFFSET -0.06061 1.60634 -0.07565
							CHANNELS 3 Zrotation Yrotation Xrotation
							End Site
							{
								OFFSET -0.02954 1.73562 -0.03642
							}
						}
					}
				}
				JOINT LeftCollar
				{
					OFFSET 0 0 0
					CHANNELS 3 Zrotation Yrotation Xrotation
					JOINT LeftShoulder
					{
						OFFSET 3.45234 1.47051 -0.06993
CHANNELS 3 Zrotation Xrotation Yrotation
						JOINT LeftElbow
						{
OFFSET 0 -5.493130 0.000000
CHANNELS 3 Zrotation Xrotation Yrotation
							JOINT LeftWrist
							{
OFFSET 0 -3.290370 0.000000
CHANNELS 3 Zrotation Xrotation Yrotation
								JOINT lhand
								{
									OFFSET 0 0 0
CHANNELS 3 Zrotation Xrotation Yrotation
									JOINT LFingers
									{
OFFSET 0 -0.729660 0.000000
CHANNELS 3 Zrotation Xrotation Yrotation
										End Site
										{
OFFSET 0 -0.588270 0.000000
										}
									}
								}
								JOINT LThumb
								{
OFFSET 0 0.000000 0.000000
CHANNELS 3 Zrotation Xrotation Yrotation
									End Site
									{
OFFSET 0 -0.597250 0.597250
									}
								}
							}
						}
					}
				}
				JOINT RightCollar
				{
					OFFSET 0 0 0
					CHANNELS 3 Zrotation Yrotation Xrotation
					JOINT RightShoulder
					{
						OFFSET -3.41935 1.44327 0.20453
CHANNELS 3 Zrotation Xrotation Yrotation
						JOINT RightElbow
						{
OFFSET 0 -5.236840 0.000000
CHANNELS 3 Zrotation Xrotation Yrotation
							JOINT RightWrist
							{
OFFSET 0 -3.382510 0.000000
CHANNELS 3 Zrotation Xrotation Yrotation
								JOINT rhand
								{
									OFFSET 0 0 0
CHANNELS 3 Zrotation Xrotation Yrotation
									JOINT RFingers
									{
OFFSET 0 -0.691450 0.000000
CHANNELS 3 Zrotation Xrotation Yrotation
										End Site
										{
OFFSET 0 -0.557470 0.000000
										}
									}
								}
								JOINT RThumb
								{
OFFSET 0 0.000000 0.000000
CHANNELS 3 Zrotation Xrotation Yrotation
									End Site
									{
OFFSET 0 -0.565980 0.565980
									}
								}
							}
						}
					}
				}
			}
		}
	}
}
MOTION
Frames: 9
Frame Time: 0.008333333333333333
-37.050400 17.462700 -3.755600 -23.178000 79.376600 -18.538400 0.000000 0.000000 0.000000 -8.614300 -12.152900 -25.013600 3.789700 11.875200 35.291800 -0.988200 -20.092100 -3.567400 1.713700 8.242300 23.452400 0.000000 0.000000 0.000000 28.895000 8.936800 6.427300 -0.784000 -5.652700 15.780000 -2.127700 2.040900 -27.050800 -0.351700 -3.810500 10.544200 -2.823000 0.940800 12.842200 5.524800 1.421200 8.227300 7.273100 0.660500 1.285400 0.176100 1.897400 -2.098100 -6.894000 2.113400 -17.775400 -2.269800 1.655900 -4.898600 0.000000 -0.000000 0.000000 8.249500 14.573900 -43.712600 35.383600 -45.084100 15.084300 -0.806400 -8.813900 -12.168100 0.000000 0.000000 0.000000 -7.125000 0.000000 0.000000 -24.492900 40.807700 -2.718900 0.000000 -0.000000 0.000000 -21.494800 15.537800 47.619900 -26.893100 -38.077100 -9.433100 -11.735700 -3.989600 17.700500 0.000000 0.000000 0.000000 7.125000 0.000000 -0.000000 15.538100 47.414300 -0.947500
-37.051963 17.458403 -3.757319 -23.312931 79.373709 -18.631844 0.000000 0.000000 0.000000 -8.564453 -12.210404 -25.121107 3.817749 11.913796 35.427825 -0.986559 -20.151870 -3.695768 1.663619 8.126902 23.100345 0.000000 0.000000 0.000000 28.902735 8.943675 6.290416 -0.799626 -5.707391 15.937823 -2.138482 2.099029 -27.106741 -0.353184 -3.818391 10.566233 -4.336695 2.139083 12.774930 6.657532 2.893720 8.190969 9.215573 1.348358 0.957878 1.407432 1.138521 -2.209279 -8.646226 0.891756 -17.515383 -2.981957 1.078127 -4.818048 0.000000 0.000000 0.000000 7.888226 13.946046 -46.768742 35.057953 -44.853069 14.854285 -0.971958 -8.884842 -12.150755 0.000000 0.000000 0.000000 -7.125000 0.000000 0.000000 -24.623065 40.776448 -2.756012 0.000000 0.000000 0.000000 -21.903187 16.910314 45.065589 -27.265703 -38.430795 -9.664053 -11.728903 -4.205786 17.720736 0.000000 0.000000 0.000000 7.125000 0.000000 0.000000 15.551617 47.433129 -0.955704
-37.053807 17.453206 -3.759319 -23.417987 79.368568 -18.670996 0.000000 0.000000 0.000000 -8.508698 -12.294688 -25.272666 3.854068 11.963532 35.603288 -0.980812 -20.195830 -3.857723 1.607742 7.995582 22.700975 0.000000 0.000000 0.000000 28.899612 8.948863 6.091364 -0.820597 -5.779804 16.146899 -2.151121 2.163965 -27.173484 -0.350056 -3.801528 10.518840 -5.849264 3.312387 12.677223 7.742049 4.348350 8.131741 11.123616 2.049607 0.513222 2.647260 0.403666 -2.404005 -10.375667 -0.284261 -17.177051 -3.695464 0.514644 -4.728719 0.000000 0.000000 0.000000 7.519244 13.416759 -49.762096 34.762406 -44.641279 14.646267 -1.118050 -8.914208 -12.146238 0.000000 0.000000 0.000000 -7.125000 0.000000 0.000000 -24.741696 40.758698 -2.782997 0.000000 0.000000 0.000000 -22.230277 18.322378 42.556905 -27.631217 -38.773633 -9.892193 -11.729926 -4.430693 17.726906 0.000000 0.000000 0.000000 7.125000 0.000000 0.000000 15.552868 47.439300 -0.958225
-37.055622 17.447108 -3.760947 -23.562329 79.362655 -18.747783 0.000000 0.000000 0.000000 -8.444492 -12.372771 -25.439630 3.894565 12.018699 35.798278 -0.975943 -20.242965 -4.010037 1.561994 7.886789 22.370806 0.000000 0.000000 0.000000 28.910494 8.971966 5.887026 -0.844746 -5.862098 16.384875 -2.161592 2.203485 -27.232252 -0.324396 -3.656222 10.111799 -5.525761 3.310412 13.223411 7.409499 4.354815 7.724004 10.542215 2.092596 -0.204564 3.171831 0.409638 -2.206999 -10.266496 -0.253932 -16.940302 -3.747923 0.479110 -4.686670 0.000000 0.000000 0.000000 8.246391 14.153570 -50.140947 34.891384 -44.732315 14.737539 -1.224144 -9.081069 -12.181716 0.000000 0.000000 0.000000 -7.125000 0.000000 0.000000 -24.841676 40.780966 -2.781146 0.000000 0.000000 0.000000 -21.634463 18.951885 42.641404 -27.720157 -38.856898 -9.947767 -11.732613 -4.349027 17.683933 0.000000 0.000000 0.000000 7.125000 0.000000 0.000000 15.535046 47.397734 -0.940861
-37.057175 17.439710 -3.761888 -23.737787 79.361456 -18.871106 0.000000 0.000000 0.000000 -8.382059 -12.426948 -25.603467 3.937363 12.076592 36.003462 -0.975927 -20.300376 -4.105987 1.536186 7.824610 22.182618 0.000000 0.000000 0.000000 28.939751 9.018061 5.709456 -0.871171 -5.950777 16.641804 -2.166111 2.191124 -27.264668 -0.276355 -3.380292 9.339324 -3.035858 1.967502 14.517938 5.419538 2.715887 6.928011 7.040623 1.375413 -1.190246 2.924908 1.239585 -1.515816 -8.033463 1.125528 -16.855518 -3.043117 1.031490 -4.706715 0.000000 0.000000 0.000000 10.322699 16.288053 -47.596602 35.481831 -45.152985 15.153986 -1.280541 -9.412746 -12.252118 0.000000 0.000000 0.000000 -7.125000 0.000000 0.000000 -24.913267 40.839542 -2.751523 0.000000 0.000000 0.000000 -19.907154 18.673776 45.612199 -27.470134 -38.623724 -9.791191 -11.720053 -3.900519 17.574531 0.000000 0.000000 0.000000 7.125000 0.000000 0.000000 15.507567 47.289316 -0.896695
-37.058269 17.429162 -3.762435 -23.737084 79.384270 -18.846808 0.000000 0.000000 0.000000 -8.369949 -12.466560 -25.762384 3.985804 12.141440 36.234102 -0.984834 -20.349520 -4.057859 1.532358 7.815313 22.154647 0.000000 0.000000 0.000000 28.943814 9.060877 5.546321 -0.902188 -6.052972 16.938230 -2.158688 2.093930 -27.240136 -0.249244 -3.211766 8.868980 -1.427547 1.365977 15.363698 4.063822 2.059984 6.360864 4.738828 1.096566 -2.062882 3.424160 1.512182 -1.062270 -6.865729 1.652985 -16.687147 -2.779271 1.183063 -4.714293 0.000000 0.000000 0.000000 12.143524 17.563842 -46.996328 35.739114 -45.332607 15.336733 -1.292651 -9.584007 -12.272197 0.000000 0.000000 0.000000 -7.125000 0.000000 0.000000 -24.930534 40.856653 -2.742303 0.000000 0.000000 0.000000 -18.190868 18.957545 46.543198 -27.268792 -38.434180 -9.665714 -11.636766 -3.595498 17.408113 0.000000 0.000000 0.000000 7.125000 0.000000 0.000000 15.524834 47.115945 -0.829893
-37.059501 17.420059 -3.763394 -23.847188 79.396561 -18.919147 0.000000 0.000000 0.000000 -8.327094 -12.515389 -25.939322 4.038646 12.211516 36.484483 -0.989133 -20.420949 -4.114485 1.512366 7.766397 22.006790 0.000000 0.000000 0.000000 28.959707 9.096883 5.350032 -0.935820 -6.161631 17.254190 -2.168599 2.083332 -27.306944 -0.229630 -3.083545 8.511575 -0.630444 1.099899 15.906063 3.409470 1.789256 6.001918 3.621242 0.978186 -2.664795 3.698635 1.610142 -0.831438 -6.317095 1.864392 -16.552204 -2.660623 1.233321 -4.706465 0.000000 0.000000 0.000000 13.071017 18.323220 -46.926426 35.842946 -45.404723 15.410530 -1.342453 -9.698180 -12.295853 0.000000 0.000000 0.000000 -7.125000 0.000000 0.000000 -24.980059 40.873488 -2.737417 0.000000 0.000000 0.000000 -17.346797 19.277974 46.936191 -27.212854 -38.381443 -9.630960 -11.590552 -3.462775 17.315567 0.000000 0.000000 0.000000 7.125000 0.000000 0.000000 15.534604 47.019541 -0.792668
-37.060657 17.410542 -3.764457 -23.993556 79.410423 -19.030985 0.000000 0.000000 0.000000 -8.278886 -12.561577 -26.121430 4.094855 12.285398 36.749321 -0.993790 -20.503006 -4.183613 1.491538 7.715052 21.851927 0.000000 0.000000 0.000000 28.981899 9.132057 5.144593 -0.972809 -6.278676 17.595323 -2.183539 2.085630 -27.403244 -0.212489 -2.966901 8.186785 0.021309 0.867266 16.356151 2.891777 1.556668 5.718604 2.736578 0.869889 -3.159731 3.861682 1.693138 -0.662872 -5.856739 2.042552 -16.450327 -2.550357 1.280926 -4.700670 0.000000 0.000000 0.000000 13.762528 18.947340 -46.858481 35.896600 -45.441867 15.448736 -1.387340 -9.773773 -12.312818 0.000000 0.000000 0.000000 -7.125000 0.000000 0.000000 -25.023085 40.884610 -2.735465 0.000000 0.000000 0.000000 -16.711819 19.521385 47.280684 -27.163592 -38.334774 -9.600421 -11.547736 -3.362759 17.238034 0.000000 0.000000 0.000000 7.125000 0.000000 0.000000 15.546544 46.938335 -0.761433
-37.061600 17.400394 -3.765501 -24.161323 79.426208 -19.169109 0.000000 0.000000 0.000000 -8.229047 -12.600966 -26.307001 4.153883 12.362292 37.025977 -0.999579 -20.594354 -4.251686 1.472215 7.667101 21.707553 0.000000 0.000000 0.000000 29.008816 9.166042 4.939945 -1.011696 -6.399388 17.947909 -2.200735 2.089703 -27.513462 -0.197293 -2.859674 7.888483 0.604085 0.637064 16.736087 2.440503 1.324738 5.493260 1.966740 0.757469 -3.565894 3.944164 1.779343 -0.524436 -5.425449 2.219636 -16.386913 -2.436393 1.335904 -4.702582 0.000000 0.000000 0.000000 14.307637 19.482810 -46.732795 35.910860 -45.451715 15.458914 -1.421514 -9.812127 -12.322753 0.000000 0.000000 0.000000 -7.125000 0.000000 0.000000 -25.054762 40.890326 -2.735626 0.000000 0.000000 0.000000 -16.193537 19.678022 47.628296 -27.102263 -38.276540 -9.562427 -11.504302 -3.274459 17.167266 0.000000 0.000000 0.000000 7.125000 0.000000 0.000000 15.561409 46.863689 -0.732886
